<?xml version="1.0" encoding="utf-8"?>
<!-- Generator: Adobe Illustrator 19.2.1, SVG Export Plug-In . SVG Version: 6.00 Build 0)  -->
<svg version="1.1" id="Capa_1" xmlns="http://www.w3.org/2000/svg" xmlns:xlink="http://www.w3.org/1999/xlink" x="0px" y="0px"
	 viewBox="0 0 470 174" style="enable-background:new 0 0 470 174;" xml:space="preserve">
<style type="text/css">
	.st0{fill:#00AEC7;}
	.st1{fill:#0033A0;}
</style>
<g>
	<g>
		<path id="XMLID_306_" class="st0" d="M406.1,137.9c0.2-0.3,0-0.5-0.2-0.6c-9,3.6-28.7,7.2-41,9c-10.6,1.6-19.7,1.9-24.8,2.2
			l-2.3,0.2c-0.3,0-0.4,0.2-0.5,0.4c-0.1,0.2,0.1,0.3,0.2,0.4c0.9,1,3.9,3.8,9.9,4.7c6.9,0.9,17-0.8,29.8-4.5
			C387.9,146.7,400.1,141.5,406.1,137.9z"/>
		<path id="XMLID_305_" class="st0" d="M407,143.2c-5.7,3.9-13.5,7.7-22.7,10.9c-9.4,3.3-19.5,6-30.5,7.9c-0.2,0.1-0.4,0.2-0.4,0.4
			c0,0.1,0.1,0.3,0.1,0.4c1.8,1.4,4.2,2.3,7,2.6c3.5,0.4,7.8-0.1,12.7-1.4c4.4-1.2,8.5-3.1,13.3-5.4c4.5-2.2,8.8-4.7,12.4-7.3
			c3.7-2.7,6.6-5.3,8.3-7.6C407.3,143.4,407.2,143.2,407,143.2z"/>
		<path id="XMLID_304_" class="st0" d="M360.7,42.3c2.3,2.4,5.2,4.2,8.8,5.3l0.3,0.1c1,0.3,61.1,16.1,77,20.4c7,1.9,12.5,3.4,15,4.1
			c0.3,0,0.4-0.1,0.4-0.3c0-0.1-0.1-0.3-0.2-0.3c-10-4-71.9-27.8-95.2-36.7l-9.8-3.8c-0.3,0-0.5,0-0.6,0.1c-0.1,0.1-0.1,0.3-0.1,0.4
			c0.1,0.8,0.6,5.3,2.6,8.3C359.5,40.9,360.1,41.7,360.7,42.3z"/>
		<path id="XMLID_303_" class="st0" d="M363.3,18.7c1.2,1.5,2.3,2.4,4.5,3.8c0.7,0.4,1.5,0.9,2.3,1.3l5.5,2.8
			c3.1,1.6,49.5,23.2,56.3,26.6c8,3.9,16,7.7,19.5,9.5c0.4,0.1,0.5,0,0.4-0.4c-8.6-5.4-41.8-26.3-65.5-40.9l-17-10.3l-3.1-1.9
			l-5.8-3.5c-0.3-0.1-0.5-0.1-0.6,0c-0.2,0.1-0.2,0.2-0.2,0.3c-0.1,0.8-0.1,5.2,1.2,8.5C361.6,15.9,362.4,17.5,363.3,18.7z"/>
		<path id="XMLID_302_" class="st0" d="M405.1,153.6c-0.1,0-0.2,0-0.3,0.1c-7.7,7.6-19,11.8-22.8,13c-0.2,0-0.4,0.2-0.4,0.4
			c0,0.2,0.1,0.4,0.3,0.5c0.6,0.3,5.1,2.7,13.8-1.6c4.9-2.5,7.4-6.5,9.6-11.8C405.5,153.7,405.3,153.6,405.1,153.6z"/>
		<path id="XMLID_301_" class="st0" d="M460.4,90c-3.9,1.1-18.6,4.9-31.6,8.2c-11.2,2.9-23.9,6.3-23.9,6.3c-1.3,0.3-0.8,0.9-0.7,1.1
			c0.3,0.5,1.1,1.7,1.9,3.1c2,3.4,4.8,2.9,7.2,2.1c0.5-0.2,45.3-18.9,47.3-20.2c0.3-0.2,0.1-0.4,0.1-0.5C460.7,90,460.5,90,460.4,90
			z"/>
		<path id="XMLID_300_" class="st0" d="M440.7,121.1l-0.3,0.1c-5.9,4.9-15,12.8-24.3,20.8c-0.9,0.7-1.2,2-1.6,3.6
			c-0.6,2.7-2,6.1-2,6.1c-0.3,0.8,0.1,1.1,0.9,0.3c7.2-7.8,23.2-25.4,27.5-30.5C441,121.3,440.8,121.1,440.7,121.1z"/>
		<path id="XMLID_298_" class="st0" d="M469.1,78.1c-8-1.5-104.9-18.7-104.9-18.7c-0.2,0-0.4,0.1-0.5,0.2c-0.1,0.2,0,0.4,0,0.6
			c1.6,5,5.4,10,11.9,12.1c0.8,0.2,1.4,0.3,2.1,0.4c0,0,82.2,5.4,91.3,6c0.2,0,0.4-0.1,0.4-0.3C469.3,78.2,469.2,78.1,469.1,78.1z"
			/>
		<path id="XMLID_297_" class="st0" d="M465,83.6c-2.9,0.1-8.8,0.1-16.2,0.1c-8.5,0-19.1,0.1-28.9,0.1c-13.2,0-34.2,0.2-34.2,0.2
			c-0.1,0-0.3,0.1-0.4,0.2c-0.1,0.2-0.1,0.3,0,0.4c0.3,0.9,1.5,3.1,2.8,4.5c2.6,2.7,5.5,4.2,8.5,4.5c0.4,0,0.7,0,1.1,0
			c0.4,0,0.7,0,1.1-0.1c0.4,0,62.8-8.8,66.2-9.4c0.2,0,0.3-0.1,0.3-0.3C465.3,83.8,465.2,83.6,465,83.6z"/>
		<path id="XMLID_293_" class="st0" d="M455.3,98.7c-4.3,2.6-15.5,9.5-25.1,15.2c-5.4,3.3-12.1,7-15.6,9.2c-0.4,0.3-0.7,0.2-0.5,1.3
			c0,0,0.2,1,0.3,2.3c0.4,5.2,2.5,4.6,5.6,2.2l0.4-0.3c10.8-8.9,30.8-25.7,35.2-29.4C455.7,98.9,455.5,98.8,455.3,98.7z"/>
	</g>
</g>
<g>
	<path class="st1" d="M274.6,39.9c-21.5,0-41.7,15.8-42.5,46.6c-0.8,28,13.8,47.6,38.5,47.6c20.3,0,27.4-14.1,27.4-14.1
		c1.2,9.5,6.3,12.4,16.5,12.4V39.9H274.6z M297,94.4c0,12.8-7.3,25-23.3,25c-14.3,0-24.5-9.6-23.8-32.6
		c0.6-22.1,11.3-31.9,25.4-31.9c1.1,0,2.1,0,3.1-0.1v0H297L297,94.4L297,94.4z"/>
	<path id="XMLID_277_" class="st1" d="M137.8,39.9l0.1,64.1c0,9.4-7.7,14.1-17.9,14.1c-10.8,0-17.8-4.7-17.8-14.1L102,56
		c0-13.7-8.6-16.1-16.1-16.1v68.1c0,17.2,15.5,25.6,33.5,25.6c17.5,0,34.7-8.4,34.7-25.6l0-49.8C154.1,44.6,149,39.9,137.8,39.9z"/>
	<path id="XMLID_267_" class="st1" d="M47.6,81.3l-19.7-5.4c-5.4-1.5-10.4-3.9-10.4-10.5c0-6.9,4.2-10.3,13-10.3H48
		c7.8,0,17-2.6,17-15.2l-33.1,0c-20.4,0-32,10.3-32,25c0,13.7,8.7,21.4,24.2,25.6L41.4,95c7.1,1.9,9.6,6.4,9.6,10.9
		c0,6.9-4.4,11.1-15.1,11.2l-33,0.3v14.9h33.6c20.3,0,32-10.9,32-25.3C68.6,92.6,62.9,85.4,47.6,81.3z"/>
	<path id="XMLID_266_" class="st1" d="M209.6,39.9c-20,0-33.8,11.6-33.8,35.4v57.1h16.1V74.7c0-12.3,6.6-19.6,19.1-19.6h4.8
		c14.1,0,16.4-7.3,16.4-15.2L209.6,39.9L209.6,39.9z"/>
</g>
</svg>
